<?xml version="1.0" encoding="UTF-8"?>
<!DOCTYPE svg PUBLIC "-//W3C//DTD SVG 1.1//EN" "http://www.w3.org/Graphics/SVG/1.1/DTD/svg11.dtd">
<!-- Creator: CorelDRAW 2017 -->
<svg xmlns="http://www.w3.org/2000/svg" xml:space="preserve" width="20.8841mm" height="11.0201mm" version="1.1" style="shape-rendering:geometricPrecision; text-rendering:geometricPrecision; image-rendering:optimizeQuality; fill-rule:evenodd; clip-rule:evenodd"
viewBox="0 0 2528.64 1334.31"
 xmlns:xlink="http://www.w3.org/1999/xlink">
 <defs>
  <style type="text/css">
   <![CDATA[
    .str1 {stroke:#FEFEFE;stroke-width:60.54;stroke-miterlimit:22.9256}
    .str0 {stroke:#FEFEFE;stroke-width:36.32;stroke-miterlimit:22.9256}
    .fil2 {fill:none}
    .fil0 {fill:#FEFEFE}
    .fil1 {fill:#FEFEFE;fill-rule:nonzero}
   ]]>
  </style>
 </defs>
 <g id="Capa_x0020_1">
  <metadata id="CorelCorpID_0Corel-Layer"/>
  <g id="_1140957053040">
   <path class="fil0" d="M1754.99 0l588.13 0c48.7,0 92.97,19.89 124.99,51.93l0 0.19c32.04,32.05 51.93,76.23 51.93,124.78l0 588.13c0,48.7 -19.89,92.97 -51.93,124.99 -32.03,32.04 -76.29,51.93 -124.99,51.93l-588.13 0c-48.71,0 -92.95,-19.89 -124.98,-51.93 -32.04,-32.03 -51.93,-76.29 -51.93,-124.99l0 -588.13c0,-48.55 19.89,-92.74 51.93,-124.78l0 -0.19c32.03,-32.04 76.27,-51.93 124.98,-51.93zm443.89 722.5l-149.15 -149.56 -151.86 151.29c-10.53,10.5 -23.36,15.76 -38.22,15.7 -14.87,-0.06 -27.65,-5.41 -38.1,-15.99l-25.92 -26.24c-20.79,-21.02 -20.69,-55.06 0.21,-75.95l150.77 -150.83 -150.79 -151.22c-20.96,-21.01 -20.91,-55.25 0.12,-76.2l25.91 -25.83c20.92,-20.84 54.92,-20.9 75.92,-0.12l152.05 150.53 150.07 -148.88c21,-20.83 55.02,-20.79 75.97,0.08l26.32 26.21c10.53,10.51 15.85,23.32 15.85,38.2 0,14.87 -5.34,27.67 -15.89,38.16l-149.86 149 149.78 148.29c10.59,10.47 15.95,23.28 15.97,38.19 0.02,14.89 -5.28,27.73 -15.84,38.24l-27.13 27.04c-21.01,20.93 -55.22,20.89 -76.16,-0.12z"/>
   <path class="fil1" d="M486.03 1226.71l-8.18 17.94c-10.91,23.93 -36.98,35.86 -78.24,35.86l-123.7 0c-41.25,0 -56.45,-11.94 -45.54,-35.86l49.06 -107.6c10.89,-23.88 36.98,-35.86 78.24,-35.86l123.7 0c41.26,0 56.42,11.99 45.54,35.86l-16.36 35.86c-10.91,23.94 -36.98,35.86 -78.24,35.86l-113.43 0c-13.73,0 -23.36,6.01 -28.8,17.93l-4.1 9c-5.44,11.94 2.22,17.88 22.85,17.88l82.52 0c20.55,0 33.61,-5.95 39.05,-17.88 2.74,-5.99 7.56,-9 14.38,-9l41.26 0zm-179.6 -35.86c2.74,-5.99 7.52,-8.94 14.43,-8.94l103.15 0c20.55,0 33.64,-5.99 39.07,-17.93l8.17 -17.93c5.47,-12 -2.17,-17.93 -22.71,-17.93l-82.52 0c-20.63,0 -33.71,5.93 -39.17,17.93l-20.43 44.8zm462.14 26.93l-12.25 26.88c-10.91,23.93 -36.98,35.86 -78.24,35.86l-123.7 0c-41.26,0 -56.45,-11.94 -45.54,-35.86l49.06 -107.6c10.87,-23.88 36.98,-35.86 78.23,-35.86l123.71 0c41.25,0 56.41,11.99 45.53,35.86l-12.28 26.93 -25.75 0c-17.18,0 -23.04,-5.99 -17.61,-17.93 5.47,-12 -0.62,-17.93 -18.22,-17.93l-87.02 0c-20.63,0 -33.7,5.93 -39.17,17.93l-40.88 89.66c-5.44,11.94 2.22,17.88 22.85,17.88l85.18 0c18.8,0 30.94,-5.95 36.38,-17.88 5.46,-11.99 16.77,-17.93 33.95,-17.93l25.77 0zm93.18 -170.4l61.88 0c13.73,0 17.9,6.01 12.46,17.93l-69.34 152.1 129.36 -102.76c10.91,-8.94 23.32,-13.46 37.05,-13.46l10.35 0c13.73,0 17.9,5.99 12.45,17.93l-59.26 129.99c-4.12,9.01 -1.02,13.48 9.26,13.48l15.5 0 -8.17 17.93 -54.85 0c-18.44,0 -24.93,-6.01 -19.49,-17.93l53.13 -116.54c5.47,-12 1.89,-13.28 -10.73,-3.97l-174.36 138.44 -20.56 0 91.97 -201.73c4.07,-8.94 0.92,-13.48 -9.35,-13.48l-15.5 0 8.18 -17.93zm233.31 53.81l61.88 0c13.73,0 17.9,5.99 12.45,17.93l-44.81 98.29 129.37 -102.76c10.9,-8.94 23.32,-13.46 37.05,-13.46l10.35 0c13.73,0 17.9,5.99 12.45,17.93l-59.27 129.99c-4.1,9.01 -1,13.48 9.27,13.48l15.5 0 -8.17 17.93 -54.86 0c-18.44,0 -24.93,-6.01 -19.48,-17.93l53.13 -116.54c5.46,-12 1.89,-13.28 -10.73,-3.97l-174.36 138.44 -20.57 0 67.45 -147.94c4.07,-8.94 0.92,-13.46 -9.35,-13.46l-15.5 0 8.18 -17.93zm426.09 26.93l-82.53 0c-20.62,0 -33.7,5.93 -39.17,17.93l-40.88 89.66c-5.44,11.94 2.22,17.88 22.85,17.88l82.52 0c20.55,0 33.6,-5.95 39.05,-17.88l40.88 -89.66c5.47,-12 -2.17,-17.93 -22.71,-17.93zm-172.64 152.4c-41.26,0 -56.45,-11.94 -45.54,-35.86l49.06 -107.6c10.87,-23.88 36.98,-35.86 78.24,-35.86l123.7 0c41.25,0 56.41,11.99 45.53,35.86l-49.05 107.6c-10.91,23.93 -36.98,35.86 -78.24,35.86l-123.7 0zm307.37 -233.14l61.88 0c13.73,0 17.9,6.01 12.46,17.93l-81.77 179.34c-5.44,11.93 -3.04,17.93 7.33,17.93l15.41 0 -8.18 17.93 -61.88 0c-13.73,0 -17.82,-6.01 -12.39,-17.93l81.77 -179.34c5.44,-11.93 2.95,-17.93 -7.31,-17.93l-15.5 0 8.18 -17.93zm257.15 80.74l-82.52 0c-20.63,0 -33.7,5.93 -39.17,17.93l-40.88 89.66c-5.45,11.94 2.22,17.88 22.84,17.88l82.53 0c20.55,0 33.6,-5.95 39.04,-17.88l40.89 -89.66c5.46,-12 -2.18,-17.93 -22.73,-17.93zm-172.62 152.4c-41.26,0 -56.45,-11.94 -45.54,-35.86l49.05 -107.6c10.89,-23.88 36.99,-35.86 78.24,-35.86l123.7 0c41.26,0 56.42,11.99 45.54,35.86l-49.05 107.6c-10.91,23.93 -36.99,35.86 -78.24,35.86l-123.7 0zm369.16 -17.93l-61.9 0c-20.63,0 -33.72,5.99 -39.17,17.93l-4.07 8.94c-5.47,12 2.18,17.93 22.81,17.93l82.52 0c20.55,0 33.61,-5.93 39.07,-17.93l4.08 -8.94c5.44,-11.94 -2.18,-17.93 -22.73,-17.93l-10.35 0 -4.08 8.94c6.9,0 9,2.99 6.26,9 -2.74,5.99 -7.53,8.94 -14.43,8.94 -6.9,0 -8.92,-2.94 -6.2,-8.94l8.18 -17.93zm-2.57 -107.6c6.9,0 9,3 6.26,9l-8.17 17.93 41.25 0c20.55,0 33.64,-5.99 39.07,-17.93l8.17 -17.93c5.47,-12 -2.17,-17.93 -22.71,-17.93l-41.26 0c-20.62,0 -33.7,5.93 -39.17,17.93l-8.17 17.93c-5.44,11.94 -1.27,17.93 12.46,17.93l0 0 4.09 -9c-6.89,0 -8.9,-3 -6.19,-8.94 2.74,-5.99 7.47,-9 14.37,-9zm183.11 -107.6l-4.1 9c-5.44,11.94 -15,17.93 -28.8,17.93l-30.9 0c-6.9,0 -11.64,3 -14.35,8.94l-8.17 17.94c41.18,0 56.34,11.99 45.45,35.86l-16.36 35.86c-10.91,23.94 -36.98,35.86 -78.16,35.86l-61.88 0 -4.1 9 41.26 0c6.82,0 8.92,2.94 6.19,8.94l-4.1 9 30.91 0c41.26,0 56.45,11.94 45.56,35.82l-12.28 26.93c-10.91,23.93 -36.98,35.86 -78.24,35.86l-123.7 0c-41.25,0 -56.45,-11.94 -45.54,-35.86l12.29 -26.93c10.87,-23.88 36.95,-35.82 78.21,-35.82l82.52 0 4.1 -9 -41.25 0c-6.91,0 -9,-2.99 -6.3,-8.94l4.1 -9c0,0 -10.27,0 -30.9,0 -27.55,0 -35.82,-11.93 -24.91,-35.86l16.36 -35.86c10.87,-23.88 32.04,-35.86 63.59,-35.86l86.8 0 16.35 -35.88c5.45,-11.93 15.09,-17.93 28.82,-17.93l51.53 0zm-32.93 264.54l90.83 4.47c19.26,3 32.27,-3 39.08,-17.93l61.13 -134.11 -129.34 102.7c-10.93,9.01 -23.32,13.48 -37.05,13.48l-10.35 0c-13.73,0 -17.82,-6.01 -12.39,-17.93l59.27 -130c4.08,-8.94 0.93,-13.46 -9.34,-13.46l-15.5 0 8.17 -17.93 54.85 0c18.44,0 24.93,5.99 19.49,17.93l-53.15 116.59c-5.45,11.94 -1.89,13.22 10.82,3.92l174.28 -138.44 20.63 0 -89.94 197.26c-10.91,23.93 -36.98,35.86 -78.24,35.86l-113.5 0 10.22 -22.4z"/>
   <path class="fil1" d="M387.01 961.7l-7.45 16.71 -112.79 -0.88 -27.44 64.33 -110.9 248.08 -84.96 0c-13.1,0 -21.73,-2.88 -25.81,-8.67 -1.49,-2.54 -2.19,-5.13 -2.19,-7.66l0 -1.37c0,-5.15 2.77,-13.23 8.31,-24.37l121.95 -269.45 -132.27 0 7.45 -16.71 366.1 0z"/>
   <line class="fil2 str0" x1="-0" y1="965.02" x2="1397.71" y2= "965.02" />
   <path class="fil1 str1" d="M140.95 801.32l0 -733.14c0,-1.8 -1.51,-3.26 -3.22,-3.26l-102 0c-1.68,0 -3.22,1.53 -3.22,3.26l0 733.14c0,1.72 1.47,3.26 3.22,3.26l102 0c1.78,0 3.22,-1.47 3.22,-3.26zm248.2 3.26l102.98 0c1.78,0 3.23,-1.47 3.23,-3.26l0 -321.49c0,-1.79 -1.45,-3.26 -3.23,-3.28l-102.95 -0.39c-0.9,0 -1.66,0.31 -2.31,0.98 -0.62,0.63 -0.93,1.4 -0.93,2.3l0 321.88c0,1.79 1.44,3.26 3.22,3.26zm521.43 -736.4l0 585.49 -392.76 -587.32c-0.63,-0.92 -1.56,-1.43 -2.68,-1.43l-123.09 0c-1.22,0 -2.28,0.63 -2.86,1.74 -0.58,1.1 -0.51,2.34 0.19,3.38l497.76 733.11c0.63,0.93 1.57,1.42 2.68,1.42l126 0c1.78,0 3.22,-1.47 3.22,-3.26l0 -733.14c0,-1.8 -1.44,-3.26 -3.22,-3.26l-102.02 0c-1.76,0 -3.22,1.45 -3.22,3.26zm464.37 733.14l0 -733.14c0,-1.8 -1.63,-3.26 -3.63,-3.26l-101.19 0c-1.99,0 -3.62,1.45 -3.62,3.26l0 733.14c0,1.79 1.63,3.26 3.62,3.26l101.19 0c2,0 3.63,-1.47 3.63,-3.26z"/>
  </g>
 </g>
</svg>
